<?xml version="1.0" encoding="utf-8"?>
<!-- Generator: Adobe Illustrator 21.1.0, SVG Export Plug-In . SVG Version: 6.00 Build 0)  -->
<svg version="1.1" id="Layer_1" xmlns="http://www.w3.org/2000/svg" xmlns:xlink="http://www.w3.org/1999/xlink" x="0px" y="0px"
	 viewBox="0 0 566.9 566.9" style="enable-background:new 0 0 566.9 566.9;" xml:space="preserve">
<style type="text/css">
	.st0{fill:none;}
	.st1{fill:#010202;}
</style>
<g>
	<path class="st0" d="M193.7,444.6v12.9l-2.3,1.5v18.2c0,0.8-0.9,2.3-2,3.1c-0.4,0.3-0.6,0.3-0.7,0.4v-19.8l-2.3,1.5v-12.9
		L193.7,444.6z"/>
	<path class="st0" d="M300.4,373.3v12.9l-2.3,1.5v18.2c0,0.8-0.9,2.3-2,3.1c-0.4,0.3-0.7,0.3-0.7,0.4v-19.8l-2.3,1.5v-12.9
		L300.4,373.3z"/>
	<path class="st0" d="M211.5,432.7v12.9l-2.3,1.5v18.2c0,0.8-0.9,2.3-2,3.1c-0.4,0.3-0.6,0.3-0.7,0.4V449l-2.3,1.5v-12.9
		L211.5,432.7z"/>
	<polygon class="st0" points="177.6,427.8 177.6,448.8 29,349.4 29,328.4 102.7,377.7 171.9,424 172,424 	"/>
	<path class="st0" d="M282.6,385.2V398l-2.3,1.5v18.2c0,0.8-0.9,2.3-2,3.1c-0.4,0.3-0.6,0.3-0.7,0.4v-19.8l-2.3,1.5V390L282.6,385.2
		z"/>
	<polygon class="st0" points="536.6,185.9 178.8,425.2 175.1,422.7 532.8,183.3 	"/>
	<path class="st0" d="M381.2,204.8C381.2,204.8,381.2,204.8,381.2,204.8c-2.3-1.6-5.4-2.5-8.6-2.5c-3.5,0-6.4,0.7-8.7,2.3
		c-2,1.3-3,3-2.9,4.7c-0.1,2.6,2,4.4,3.3,5.2c2.4,1.6,5.5,2.5,8.9,2.5h0c3.1,0.1,6.3-0.7,8.5-2.2c2.1-1.4,3.1-3,3.1-4.9
		C384.8,208.1,383.5,206.3,381.2,204.8z"/>
	<path class="st0" d="M264.8,397v12.9l-2.3,1.5v18.2c0,0.8-0.9,2.3-2,3.1c-0.4,0.3-0.7,0.3-0.7,0.4v-19.8l-2.3,1.5v-12.9L264.8,397z
		"/>
	<path class="st0" d="M229.3,420.8v12.9l-2.3,1.5v18.2c0,0.8-0.9,2.3-2,3.1c-0.4,0.3-0.6,0.3-0.7,0.4v-19.8l-2.3,1.5v-12.9
		L229.3,420.8z"/>
	<path class="st0" d="M127.9,376.1c0,3.9-2.3,7.7-6.4,10.7L87.3,364c9.9-5.3,24.4-5,33.6,1.1C125.4,368.1,127.9,372,127.9,376.1z"/>
	<path class="st0" d="M332.7,227c-0.1-0.6,0-1.2,0.4-1.5c1.9-1.8,2.8-3.9,2.7-6.3c-0.2-3.3-2.6-6.8-6.4-9.3c-9-6-23.8-6-32.9,0
		L276,223.6l54.1,36.2l8.8-5.9l-33-22.1c-0.5-0.4-0.8-1.1-0.6-1.8c0.2-0.7,0.8-1.1,1.5-0.9l17.9,4.4c0.1,0,0.2,0,0.3,0.1l32.7,7.9
		l8.7-5.8l-32.8-7.5C333.2,228,332.8,227.6,332.7,227z M320,224.5c-0.2,0.2-0.5,0.3-0.8,0.3c-0.1,0-0.2,0-0.3,0l-16.9-3.8
		c-0.5-0.1-0.9-0.6-1-1.2c-0.1-0.6,0.2-1.2,0.6-1.5l4.9-3.3c3.6-2.4,9.2-2.4,12.7,0c1.8,1.2,2.9,2.9,3,4.8
		C322.3,221.5,321.5,223.2,320,224.5z"/>
	<path class="st0" d="M304.9,255.9l-16.7-11.1l-7.8,5.2l15.1,10.1c2.7,1.8,4.4,4.3,4.7,6.8c0.2,2.8-1.2,5.4-3.7,7.1
		c-2.2,1.5-5.6,2.3-9.1,2.3c-3.4-0.3-6.7-1.3-9.1-3l-16.4-11l-7.8,5.2l15.4,10.3c9.5,6.4,26.2,6.4,35.6,0.1c4.2-2.8,6.7-6.9,6.7-11
		C311.7,262.8,309.3,258.8,304.9,255.9z"/>
	<path class="st0" d="M318,217.5c-2.8-1.8-7.4-1.9-10.2,0l-1.9,1.3l13,2.9c0.5-0.6,0.8-1.2,0.8-1.8C319.6,219,319,218.2,318,217.5z"
		/>
	<path class="st0" d="M479.1,147.4c-9.9,5.3-24.4,5-33.6-1.1c-4.5-3-6.9-6.9-6.9-11c0-3.9,2.3-7.7,6.4-10.7L479.1,147.4z"/>
	<path class="st0" d="M228,283.7c-4.3,2.9-6.1,6.9-4.9,11.1c0.1,0.5,0,1-0.2,1.4c-0.3,0.4-0.7,0.6-1.1,0.5
		c-7.2-0.8-13.9,0.4-18.5,3.5c-2.5,1.7-4.2,4.4-4.5,7.3c0,0.4-0.2,0.8-0.5,1c-0.3,0.2-0.6,0.4-1,0.3l-3.8-0.7l-5.6,3.7l32.3,21.6
		l7.2-4.8l-18.1-12.1c-0.1-0.1-0.2-0.1-0.3-0.2c-1.8-2.1-2.7-4.4-2.4-6.6c0.2-1.4,0.9-3.5,3.5-5.2c4.7-3.2,12.9-2.7,18.6,1.1
		l16.6,11.1l6.5-4.4l-15.9-10.7c-2.9-2.1-4.6-5-4.6-7.8c0-1.7,0.6-4,3.4-5.9c4.8-3.2,12.8-2.8,18.6,1.1l16.7,11.1l6.5-4.4
		l-15.4-10.3C251.2,279,236.4,278.1,228,283.7z"/>
	<path class="st0" d="M172.9,353.4c-0.4,0.3-0.9,0.3-1.3,0l-12.3-8.2c-0.4-0.3-0.6-0.8-0.6-1.3c0-0.5,0.3-1,0.6-1.3l20-13.4
		l-8.8-5.9l-21.3,14.3c-0.4,0.3-0.9,0.3-1.3,0l-10.4-7c-0.4-0.3-0.6-0.8-0.6-1.3c0-0.5,0.3-1,0.6-1.3l24.7-16.5l-8.8-5.8l-35.4,23.7
		l54.1,36.2l35.2-23.5l-8.8-5.8L172.9,353.4z"/>
	<path class="st0" d="M247,409v12.9l-2.3,1.5v18.2c0,0.8-0.9,2.3-2,3.1c-0.4,0.3-0.7,0.3-0.7,0.4v-19.8l-2.3,1.5v-12.9L247,409z"/>
	<path class="st0" d="M496,242.4v12.9l-2.3,1.5V275c0,0.8-0.9,2.4-2,3.1c-0.4,0.3-0.6,0.3-0.7,0.4v-19.8l-2.3,1.5v-12.9L496,242.4z"
		/>
	<path class="st0" d="M513.8,230.5v12.9l-2.3,1.5v18.2c0,0.8-0.9,2.3-2,3.1c-0.4,0.3-0.7,0.3-0.7,0.4v-19.8l-2.3,1.5v-12.9
		L513.8,230.5z"/>
	<path class="st0" d="M478.2,254.3v12.9l-2.3,1.5v18.2c0,0.8-0.9,2.3-2,3.1c-0.4,0.3-0.6,0.3-0.7,0.4v-19.8L471,272v-12.9
		L478.2,254.3z"/>
	<path class="st0" d="M531.6,218.6v12.9l-2.3,1.5v18.2c0,0.8-0.9,2.3-2,3.1c-0.4,0.3-0.7,0.3-0.7,0.4v-19.8l-2.3,1.5v-12.9
		L531.6,218.6z"/>
	<polygon class="st0" points="537.9,188.7 537.9,209.7 180.1,449 180.1,428 	"/>
	<path class="st0" d="M318.2,361.4v12.9l-2.3,1.5v18.2c0,0.8-0.9,2.3-2,3.1c-0.4,0.3-0.6,0.3-0.7,0.4v-19.8l-2.3,1.5v-12.9
		L318.2,361.4z"/>
	<path class="st0" d="M460.4,266.2v12.9l-2.3,1.5v18.2c0,0.8-0.9,2.3-2,3.1c-0.4,0.3-0.6,0.3-0.7,0.4v-19.8l-2.3,1.5V271
		L460.4,266.2z"/>
	<path class="st0" d="M371.5,325.7v12.9l-2.3,1.5v18.2c0,0.8-0.9,2.3-2,3.1c-0.4,0.3-0.7,0.3-0.7,0.4v-19.8l-2.3,1.5v-12.9
		L371.5,325.7z"/>
	<path class="st0" d="M442.7,278.1V291l-2.3,1.5v18.2c0,0.8-0.9,2.4-2,3.1c-0.4,0.3-0.7,0.3-0.7,0.4v-19.8l-2.3,1.5v-12.9
		L442.7,278.1z"/>
	<path class="st0" d="M336,349.5v12.9l-2.3,1.5V382c0,0.8-0.9,2.3-2,3.1c-0.4,0.3-0.6,0.3-0.7,0.4v-19.8l-2.3,1.5v-12.9L336,349.5z"
		/>
	<path class="st0" d="M353.7,337.6v12.9l-2.3,1.5v18.2c0,0.8-0.9,2.3-2,3.1c-0.4,0.3-0.6,0.3-0.7,0.4v-19.8l-2.3,1.5v-12.9
		L353.7,337.6z"/>
	<path class="st0" d="M424.9,290v12.9l-2.3,1.5v18.2c0,0.8-0.9,2.3-2,3.1c-0.4,0.3-0.6,0.3-0.7,0.4v-19.8l-2.3,1.5v-12.9L424.9,290z
		"/>
	<path class="st0" d="M389.3,313.8v12.9l-2.3,1.5v18.2c0,0.8-0.9,2.3-2,3.1c-0.4,0.3-0.6,0.3-0.7,0.4V330l-2.3,1.5v-12.9
		L389.3,313.8z"/>
	<path class="st0" d="M407.1,301.9v12.9l-2.3,1.5v18.2c0,0.8-0.9,2.3-2,3.1c-0.4,0.3-0.6,0.3-0.7,0.4v-19.8l-2.3,1.5v-12.9
		L407.1,301.9z"/>
	<path class="st0" d="M407.2,178.8c-0.3,0.4-0.7,0.6-1.1,0.5l-17.2-1.9l-7.9,5.3l26.7,2.9c0.5,0.1,1,0.5,1.1,1.1l4.4,17.7l8.8-5.9
		l-1.7-10.1c-0.1-0.5,0-0.9,0.3-1.3c0.3-0.3,0.7-0.5,1.1-0.5l15.6,1.7l8-5.3l-25.1-2.8c-0.5-0.1-1-0.5-1.1-1.1l-4.6-18.7l-9.5,6.4
		l2.6,10.7C407.6,177.9,407.5,178.4,407.2,178.8z"/>
	<polygon class="st0" points="326.1,354.8 326.1,363.3 320.7,367 320.7,358.4 	"/>
	<polygon class="st0" points="361.7,331 361.7,339.5 356.3,343.1 356.3,334.6 	"/>
	<polygon class="st0" points="397.3,307.2 397.3,315.8 391.9,319.4 391.9,310.8 	"/>
	<polygon class="st0" points="379.5,319.1 379.5,327.6 374.1,331.3 374.1,322.7 	"/>
	<polygon class="st0" points="343.9,342.9 343.9,351.4 338.5,355 338.5,346.5 	"/>
	<polygon class="st0" points="255,402.4 255,410.9 249.6,414.5 249.6,406 	"/>
	<polygon class="st0" points="237.2,414.3 237.2,422.8 231.8,426.4 231.8,417.9 	"/>
	<polygon class="st0" points="272.8,390.5 272.8,399 267.4,402.6 267.4,394.1 	"/>
	<polygon class="st0" points="290.6,378.6 290.6,387.1 285.2,390.7 285.2,382.2 	"/>
	<polygon class="st0" points="308.4,366.7 308.4,375.2 303,378.8 303,370.3 	"/>
	<polygon class="st0" points="521.8,223.9 521.8,232.5 516.3,236.1 516.3,227.5 	"/>
	<polygon class="st0" points="415.1,295.3 415.1,303.8 409.7,307.5 409.7,298.9 	"/>
	<polygon class="st0" points="537.9,213.1 537.9,221.7 534.1,224.2 534.1,215.6 	"/>
	<polygon class="st0" points="504,235.8 504,244.4 498.6,248 498.6,239.4 	"/>
	<polygon class="st0" points="450.6,271.5 450.6,280.1 445.2,283.7 445.2,275.1 	"/>
	<polygon class="st0" points="486.2,247.7 486.2,256.3 480.8,259.9 480.8,251.3 	"/>
	<polygon class="st0" points="432.8,283.4 432.8,292 427.4,295.6 427.4,287 	"/>
	<polygon class="st0" points="468.4,259.6 468.4,268.2 463,271.8 463,263.2 	"/>
	<polygon class="st0" points="201.7,438 201.7,446.6 196.3,450.2 196.3,441.7 	"/>
	<path class="st0" d="M481.8,149.2L481.8,149.2L481.8,149.2c-5.2,3.2-11.9,4.9-18.5,4.9c-6.9,0-13.8-1.8-19-5.3
		c-5.3-3.5-8.2-8.4-8.2-13.6c0-4.6,2.3-8.9,6.5-12.3l-48.1-32.2L36.7,330.1l48,32.1h0l0,0c10.6-6.6,27.2-6.5,37.5,0.3
		c5.3,3.5,8.2,8.4,8.2,13.6c0,2.3-0.6,4.5-1.7,6.6c-1.1,2.1-2.7,4-4.8,5.7l12.8,8.5l35.8,24l357.8-239.3L481.8,149.2z M210.6,343.3
		l-37.8,25.3c-0.2,0.1-0.4,0.2-0.7,0.2c-0.2,0-0.4-0.1-0.6-0.2l-56.7-37.9c-0.4-0.3-0.7-0.8-0.7-1.3c0-0.5,0.3-1,0.7-1.3l38-25.4
		c0.4-0.3,0.9-0.3,1.3,0l11.3,7.6c0.4,0.3,0.6,0.8,0.6,1.3c0,0.5-0.3,1-0.6,1.3l-24.7,16.5l7.9,5.3l21.3-14.3c0.4-0.3,0.9-0.3,1.3,0
		l11.3,7.6c0.4,0.3,0.6,0.8,0.6,1.3c0,0.5-0.3,1-0.6,1.3l-20,13.4l9.7,6.5l25.7-17.2c0.4-0.3,0.9-0.3,1.3,0l11.3,7.6
		c0.4,0.3,0.6,0.8,0.6,1.3C211.2,342.6,211,343.1,210.6,343.3z M279.7,297.1l-9.1,6.1c-0.4,0.3-0.9,0.3-1.3,0L252,291.6
		c-4.9-3.3-12-3.8-16-1.1c-1.4,0.9-2.1,2.1-2.1,3.3c0,1.7,1.3,3.7,3.3,5.2L255,311c0.4,0.3,0.6,0.8,0.6,1.3c0,0.5-0.2,1-0.6,1.3
		l-9.1,6.1c-0.4,0.3-0.9,0.3-1.3,0l-17.3-11.6c-4.9-3.3-12-3.8-16-1.1c-1.4,0.9-2.1,1.9-2.2,3c-0.1,1.2,0.4,2.6,1.6,4l19.9,13.3
		c0.4,0.3,0.6,0.8,0.6,1.3c0,0.5-0.2,1-0.6,1.3l-9.8,6.5c-0.2,0.1-0.4,0.2-0.6,0.2c-0.2,0-0.5-0.1-0.7-0.2l-34.8-23.3
		c-0.4-0.3-0.7-0.8-0.7-1.3c0-0.5,0.3-1,0.7-1.3l7.9-5.3c0.3-0.2,0.6-0.2,0.8-0.2l3.1,0.6c0.8-3.3,2.7-6.1,5.5-8
		c4.6-3.1,11.2-4.5,18.2-4c-0.5-4.8,1.8-9.4,6.5-12.5c9.1-6.1,25-5.2,35.6,1.8l17.3,11.6c0.4,0.3,0.6,0.8,0.6,1.3
		C280.3,296.4,280,296.8,279.7,297.1z M306.3,280.6c-5.1,3.4-12,5.1-19,5.1c-7,0-14-1.7-19.2-5.2l-17.3-11.6
		c-0.4-0.3-0.6-0.8-0.6-1.3s0.3-1,0.6-1.3l10.4-7c0.4-0.3,0.9-0.3,1.3,0l17.1,11.4c2.1,1.4,5,2.3,7.9,2.6c3,0,5.9-0.7,7.7-1.9
		c1.6-1.1,2.5-2.6,2.4-4.2c-0.2-1.6-1.4-3.3-3.4-4.6l-17.1-11.4c-0.4-0.3-0.6-0.8-0.6-1.3c0-0.5,0.3-1,0.6-1.3l10.4-7
		c0.4-0.3,0.9-0.3,1.3,0l17.3,11.6c5.2,3.5,8.1,8.3,8.1,13.6C314.3,272.2,311.4,277.2,306.3,280.6z M370.7,236.2l-12.1,8.1
		c-0.3,0.2-0.6,0.2-0.9,0.2l-33.4-8.1c-0.1,0-0.2-0.1-0.3-0.1l-9.8-2.4l27.9,18.7c0.4,0.3,0.6,0.8,0.6,1.3c0,0.5-0.2,1-0.6,1.3
		l-11.4,7.6c-0.2,0.1-0.4,0.2-0.6,0.2c-0.2,0-0.5-0.1-0.6-0.2l-56.7-37.9c-0.4-0.3-0.6-0.8-0.6-1.3c0-0.5,0.2-1,0.6-1.3l22.5-15
		c9.8-6.5,25.7-6.5,35.4,0c4.5,3,7.4,7.4,7.7,11.7c0.1,1.8-0.2,4.3-1.8,6.7l33.8,7.8c0.5,0.1,0.9,0.6,1,1.2
		C371.4,235.3,371.2,235.9,370.7,236.2z M391.8,223.4c-5.8,3.9-13.1,5.8-20.4,5.8c-6.8,0-13.5-1.7-18.7-5.2c-5.2-3.5-8-8.2-8-13.4
		c0-5.5,3.2-10.6,9-14.5c11.3-7.5,28.5-7.8,39.2-0.7c2.6,1.7,4.6,3.8,6,6s2.1,4.7,2.1,7.3C400.9,214.3,397.7,219.4,391.8,223.4z
		 M449.9,183.2l-11.8,7.9c-0.2,0.2-0.5,0.2-0.8,0.2l-14.3-1.6l1.6,9.2c0.1,0.6-0.1,1.3-0.6,1.6l-11,7.3c-0.2,0.1-0.4,0.2-0.6,0.2
		c-0.2,0-0.3,0-0.5-0.1c-0.4-0.2-0.6-0.5-0.8-1l-4.6-18.5l-29.8-3.3c-0.6-0.1-1-0.5-1.1-1.2c-0.1-0.6,0.1-1.3,0.6-1.6l11.8-7.9
		c0.2-0.2,0.5-0.2,0.8-0.2l15.7,1.8l-2.4-9.7c-0.2-0.7,0.1-1.4,0.6-1.7l11.8-7.9c0.4-0.2,0.8-0.3,1.1-0.1s0.7,0.5,0.8,1l4.8,19.6
		l28.2,3.2c0.6,0.1,1,0.5,1.1,1.2C450.7,182.2,450.4,182.9,449.9,183.2z"/>
	<polygon class="st0" points="391.8,89 34.1,328.4 30.3,325.8 388.1,86.5 	"/>
	<polygon class="st0" points="219.4,426.2 219.4,434.7 214,438.3 214,429.8 	"/>
	<polygon class="st0" points="177.6,452.2 177.6,461 29,361.7 29,352.9 	"/>
	<polygon class="st0" points="183.9,449.9 183.9,458.5 180.1,461 180.1,452.5 	"/>
	<path class="st0" d="M391.6,198c-2.4-1.6-5.1-2.8-8.1-3.5c-3-0.8-6.1-1.2-9.3-1.2c-6.9,0-13.9,1.8-19.2,5.4
		c-4.9,3.3-7.7,7.5-7.7,11.9c0,4,2.4,7.9,6.8,10.8c9.8,6.6,26.2,6.3,36.5-0.6c5-3.4,7.8-7.6,7.8-12
		C398.3,204.8,395.9,200.9,391.6,198z M383,217.3c-2.5,1.7-5.8,2.6-9.2,2.6c-0.2,0-0.4,0-0.5,0h0c-3.8,0-7.3-1-10.1-2.9
		c-3.1-2.1-4.7-4.8-4.6-7.7c-0.3-2.6,1.2-5.4,4.2-7.4c2.7-1.8,6-2.7,10-2.7c3.7,0,7.2,1.1,9.9,2.9c3,2,4.7,4.7,4.9,7.5
		C387.4,212,386.7,214.9,383,217.3z"/>
	<path class="st0" d="M38.5,371.4v5.1c0,0.8-0.9,2.3-2,3.1c-0.4,0.3-0.7,0.3-0.7,0.4v-10.4L38.5,371.4z"/>
	<path d="M210.6,340.7l-11.3-7.6c-0.4-0.3-0.9-0.3-1.3,0l-25.7,17.2l-9.7-6.5l20-13.4c0.4-0.3,0.6-0.8,0.6-1.3c0-0.5-0.3-1-0.6-1.3
		l-11.3-7.6c-0.4-0.3-0.9-0.3-1.3,0l-21.3,14.3l-7.9-5.3l24.7-16.5c0.4-0.3,0.6-0.8,0.6-1.3c0-0.5-0.3-1-0.6-1.3l-11.3-7.6
		c-0.4-0.3-0.9-0.3-1.3,0l-38,25.4c-0.4,0.3-0.7,0.8-0.7,1.3c0,0.5,0.3,1,0.7,1.3l56.7,37.9c0.2,0.1,0.4,0.2,0.6,0.2
		c0.2,0,0.5-0.1,0.7-0.2l37.8-25.3c0.4-0.3,0.6-0.8,0.6-1.3C211.2,341.5,211,341,210.6,340.7z M172.2,365.6l-54.1-36.2l35.4-23.7
		l8.8,5.8L137.6,328c-0.4,0.3-0.6,0.8-0.6,1.3c0,0.5,0.3,1,0.6,1.3l10.4,7c0.4,0.3,0.9,0.3,1.3,0l21.3-14.3l8.8,5.9l-20,13.4
		c-0.4,0.3-0.6,0.8-0.6,1.3c0,0.5,0.3,1,0.6,1.3l12.3,8.2c0.4,0.3,0.9,0.3,1.3,0l25.7-17.2l8.8,5.8L172.2,365.6z"/>
	<path d="M279.7,294.5L262.3,283c-10.6-7.1-26.5-7.9-35.6-1.8c-4.7,3.1-7,7.7-6.5,12.5c-7-0.5-13.6,0.9-18.2,4
		c-2.8,1.9-4.8,4.8-5.5,8l-3.1-0.6c-0.3-0.1-0.6,0-0.8,0.2l-7.9,5.3c-0.4,0.3-0.7,0.8-0.7,1.3c0,0.5,0.3,1,0.7,1.3l34.8,23.3
		c0.2,0.1,0.4,0.2,0.7,0.2c0.2,0,0.4-0.1,0.6-0.2l9.8-6.5c0.4-0.3,0.6-0.8,0.6-1.3c0-0.5-0.2-1-0.6-1.3L210.7,314
		c-1.2-1.4-1.7-2.8-1.6-4c0.1-1.1,0.9-2.1,2.2-3c3.9-2.6,11.1-2.1,16,1.1l17.3,11.6c0.4,0.3,0.9,0.3,1.3,0l9.1-6.1
		c0.4-0.3,0.6-0.8,0.6-1.3c0-0.5-0.2-1-0.6-1.3l-17.8-11.9c-2.1-1.5-3.4-3.5-3.3-5.2c0-1.3,0.7-2.4,2.1-3.3c4-2.7,11-2.2,16,1.1
		l17.3,11.6c0.4,0.3,0.9,0.3,1.3,0l9.1-6.1c0.4-0.3,0.6-0.8,0.6-1.3C280.3,295.3,280,294.8,279.7,294.5z M269.9,300.2l-16.7-11.1
		c-5.8-3.9-13.8-4.3-18.6-1.1c-2.8,1.9-3.4,4.2-3.4,5.9c0,2.8,1.7,5.7,4.6,7.8l15.9,10.7l-6.5,4.4l-16.6-11.1
		c-5.7-3.8-13.8-4.3-18.6-1.1c-2.6,1.7-3.3,3.8-3.5,5.2c-0.3,2.2,0.6,4.5,2.4,6.6c0.1,0.1,0.2,0.2,0.3,0.2l18.1,12.1l-7.2,4.8
		l-32.3-21.6l5.6-3.7l3.8,0.7c0.3,0.1,0.7,0,1-0.3c0.3-0.2,0.5-0.6,0.5-1c0.3-2.9,2-5.6,4.5-7.3c4.6-3.1,11.3-4.3,18.5-3.5
		c0.4,0.1,0.9-0.1,1.1-0.5c0.3-0.4,0.4-0.9,0.2-1.4c-1.2-4.2,0.6-8.2,4.9-11.1c8.4-5.6,23.2-4.8,33,1.8l15.4,10.3L269.9,300.2z"/>
	<path d="M306.2,253.3l-17.3-11.6c-0.4-0.3-0.9-0.3-1.3,0l-10.4,7c-0.4,0.3-0.6,0.8-0.6,1.3c0,0.5,0.3,1,0.6,1.3l17.1,11.4
		c2,1.3,3.2,3,3.4,4.6c0.1,1.5-0.8,3.1-2.4,4.2c-1.8,1.2-4.7,1.9-7.7,1.9c-2.9-0.2-5.8-1.1-7.9-2.6l-17.1-11.4
		c-0.4-0.3-0.9-0.3-1.3,0l-10.4,7c-0.4,0.3-0.6,0.8-0.6,1.3s0.3,1,0.6,1.3l17.3,11.6c5.2,3.5,12.2,5.2,19.2,5.2
		c6.9,0,13.8-1.7,19-5.1c5.1-3.4,8-8.4,8-13.6C314.3,261.6,311.4,256.8,306.2,253.3z M305,278c-9.5,6.3-26.1,6.3-35.6-0.1
		l-15.4-10.3l7.8-5.2l16.4,11c2.4,1.6,5.7,2.7,9.1,3c3.5,0,6.9-0.8,9.1-2.3c2.5-1.7,3.9-4.3,3.7-7.1c-0.3-2.6-2-5.1-4.7-6.8
		L280.4,250l7.8-5.2l16.7,11.1c4.4,2.9,6.8,6.9,6.8,11.1C311.7,271.1,309.3,275.1,305,278z"/>
	<path d="M319.3,214.9c-3.6-2.4-9.2-2.4-12.7,0l-4.9,3.3c-0.5,0.3-0.7,0.9-0.6,1.5c0.1,0.6,0.5,1.1,1,1.2l16.9,3.8
		c0.1,0,0.2,0,0.3,0c0.3,0,0.5-0.1,0.8-0.3c1.5-1.3,2.3-3,2.2-4.8C322.2,217.8,321.1,216.1,319.3,214.9z M318.9,221.6l-13-2.9
		l1.9-1.3c2.7-1.8,7.4-1.8,10.2,0c1,0.7,1.6,1.6,1.7,2.4C319.7,220.5,319.4,221.1,318.9,221.6z"/>
	<path d="M370.3,233.5l-33.8-7.8c1.7-2.5,1.9-4.9,1.8-6.7c-0.3-4.3-3.2-8.7-7.7-11.7c-9.8-6.5-25.6-6.5-35.4,0l-22.5,15
		c-0.4,0.3-0.6,0.8-0.6,1.3c0,0.5,0.2,1,0.6,1.3l56.7,37.9c0.2,0.1,0.4,0.2,0.6,0.2c0.2,0,0.4-0.1,0.6-0.2l11.4-7.6
		c0.4-0.3,0.6-0.8,0.6-1.3c0-0.5-0.2-1-0.6-1.3l-27.9-18.7l9.8,2.4c0.1,0,0.2,0.1,0.3,0.1l33.4,8.1c0.3,0.1,0.6,0,0.9-0.2l12.1-8.1
		c0.5-0.3,0.7-0.9,0.6-1.5C371.2,234.1,370.8,233.6,370.3,233.5z M357.7,241.5l-32.7-7.9c-0.1,0-0.2-0.1-0.3-0.1l-17.9-4.4
		c-0.6-0.1-1.2,0.2-1.5,0.9c-0.2,0.7,0,1.5,0.6,1.8l33,22.1l-8.8,5.9L276,223.6l20.5-13.7c9.1-6.1,23.8-6.1,32.9,0
		c3.8,2.5,6.1,6,6.4,9.3c0.2,2.3-0.7,4.5-2.7,6.3c-0.4,0.4-0.5,1-0.4,1.5s0.5,1,1,1.1l32.8,7.5L357.7,241.5z"/>
	<path d="M392.8,195.4c-10.7-7.2-27.9-6.9-39.2,0.7c-5.8,3.9-9,9-9,14.5c0,5.2,2.9,9.9,8,13.4c5.2,3.5,11.9,5.2,18.7,5.2
		c7.2,0,14.6-2,20.4-5.8c5.8-3.9,9.1-9.1,9.1-14.6c0-2.6-0.7-5-2.1-7.3S395.5,197.2,392.8,195.4z M390.6,220.8
		c-10.3,6.9-26.7,7.2-36.5,0.6c-4.3-2.9-6.8-6.7-6.8-10.8c0-4.4,2.7-8.6,7.7-11.9c5.4-3.6,12.4-5.4,19.2-5.4c3.2,0,6.3,0.4,9.3,1.2
		c3,0.8,5.7,2,8.1,3.5c4.4,2.9,6.8,6.7,6.8,10.8C398.3,213.2,395.6,217.4,390.6,220.8z"/>
	<path d="M382.5,202.2c-2.7-1.8-6.2-2.8-9.9-2.9c-4,0-7.3,0.8-10,2.7c-2.9,1.9-4.4,4.7-4.2,7.4c-0.1,2.9,1.5,5.6,4.6,7.7
		c2.8,1.9,6.3,2.9,10.1,2.9h0c0.2,0,0.4,0,0.5,0c3.4,0,6.7-0.9,9.2-2.6c3.6-2.4,4.4-5.4,4.4-7.6
		C387.3,206.9,385.5,204.2,382.5,202.2z M381.8,214.8c-2.2,1.5-5.4,2.3-8.5,2.2h0c-3.4,0-6.4-0.9-8.9-2.5c-1.3-0.8-3.4-2.6-3.3-5.2
		c-0.2-1.6,0.9-3.3,2.9-4.7c2.3-1.5,5.2-2.2,8.7-2.3c3.2,0,6.3,0.9,8.6,2.5c0,0,0,0,0,0c2.2,1.5,3.5,3.3,3.6,5
		C384.9,211.7,383.8,213.4,381.8,214.8z"/>
	<path d="M404.5,176.1l-15.7-1.8c-0.3,0-0.5,0-0.8,0.2l-11.8,7.9c-0.5,0.3-0.7,1-0.6,1.6c0.1,0.6,0.6,1.1,1.1,1.2l29.8,3.3l4.6,18.5
		c0.1,0.4,0.4,0.8,0.8,1c0.2,0.1,0.3,0.1,0.5,0.1c0.2,0,0.4-0.1,0.6-0.2l11-7.3c0.5-0.3,0.7-1,0.6-1.6l-1.6-9.2l14.3,1.6
		c0.3,0,0.5,0,0.8-0.2l11.8-7.9c0.5-0.3,0.7-1,0.6-1.6c-0.1-0.6-0.6-1.1-1.1-1.2l-28.2-3.2l-4.8-19.6c-0.1-0.4-0.4-0.8-0.8-1
		s-0.8-0.1-1.1,0.1l-11.8,7.9c-0.5,0.3-0.8,1-0.6,1.7L404.5,176.1z M414.4,160.3l4.6,18.7c0.1,0.6,0.6,1,1.1,1.1l25.1,2.8l-8,5.3
		l-15.6-1.7c-0.4,0-0.8,0.1-1.1,0.5c-0.3,0.4-0.4,0.8-0.3,1.3l1.7,10.1l-8.8,5.9l-4.4-17.7c-0.2-0.6-0.6-1-1.1-1.1l-26.7-2.9
		l7.9-5.3l17.2,1.9c0.4,0,0.8-0.2,1.1-0.5c0.3-0.4,0.4-0.9,0.3-1.4l-2.6-10.7L414.4,160.3z"/>
	<path class="st1" d="M540.4,185.9L540.4,185.9c0-0.6-0.2-1.1-0.6-1.3l-6.3-4.2L395,87.7l-6.3-4.2c-0.4-0.3-0.9-0.3-1.3,0
		l-360.3,241c-0.1,0-0.1,0.1-0.2,0.2c-0.1,0.1-0.1,0.1-0.2,0.2c-0.1,0.1-0.2,0.3-0.2,0.4c0,0.1,0,0.1-0.1,0.2c0,0.1,0,0.3,0,0.4
		v36.7c0,0.5,0.2,1,0.6,1.3l6,4.1V380c0,1.1,0.4,2,1.2,2.5c0.4,0.3,0.8,0.4,1.3,0.4c0.7,0,1.4-0.3,2.1-0.7c1.9-1.3,3.3-3.7,3.3-5.7
		v-3.4l137.2,91.8c0.1,0,0.1,0.1,0.2,0.1c0,0,0.1,0,0.1,0.1c0.1,0,0.2,0,0.3,0c0.1,0,0.2,0,0.3,0c0,0,0.1,0,0.2-0.1
		c0,0,0.1,0,0.2-0.1l4.4-2.9v5.6l2.3-1.5v14.7c0,1.1,0.4,2,1.2,2.5c0.4,0.3,0.8,0.4,1.3,0.4c0.7,0,1.4-0.3,2.1-0.7
		c1.9-1.3,3.3-3.7,3.3-5.7v-16.4l2.3-1.5v-5.6l5.4-3.6v5.6l2.3-1.5v14.7c0,1.1,0.4,2,1.2,2.5c0.4,0.3,0.8,0.4,1.3,0.4
		c0.7,0,1.4-0.3,2.1-0.7c1.9-1.3,3.3-3.7,3.3-5.7v-16.4l2.3-1.5v-5.6l5.4-3.6v5.6l2.3-1.5V457c0,1.1,0.4,2,1.2,2.5
		c0.4,0.3,0.8,0.4,1.3,0.4c0.7,0,1.4-0.3,2.1-0.7c1.9-1.3,3.3-3.7,3.3-5.7V437l2.3-1.5v-5.6l5.4-3.6v5.6l2.3-1.5V445
		c0,1.1,0.4,2,1.2,2.5c0.4,0.3,0.8,0.4,1.3,0.4c0.7,0,1.4-0.3,2.1-0.7c1.9-1.3,3.3-3.7,3.3-5.7v-16.4l2.3-1.5V418l5.4-3.6v5.6
		l2.3-1.5v14.7c0,1.1,0.4,2,1.2,2.5c0.4,0.3,0.8,0.4,1.3,0.4c0.7,0,1.4-0.3,2.1-0.7c1.9-1.3,3.3-3.7,3.3-5.7v-16.4l2.3-1.5v-5.6
		l5.4-3.6v5.6l2.3-1.5v14.7c0,1.1,0.4,2,1.2,2.5c0.4,0.3,0.8,0.4,1.3,0.4c0.7,0,1.4-0.3,2.1-0.7c1.9-1.3,3.3-3.7,3.3-5.7v-16.4
		l2.3-1.5v-5.6l5.4-3.6v5.6l2.3-1.5v14.7c0,1.1,0.4,2,1.2,2.5c0.4,0.3,0.8,0.4,1.3,0.4c0.7,0,1.4-0.3,2.1-0.7
		c1.9-1.3,3.3-3.7,3.3-5.7v-16.4l2.3-1.5v-5.6l5.4-3.6v5.6l2.3-1.5v14.7c0,1.1,0.4,2,1.2,2.5c0.4,0.3,0.8,0.4,1.3,0.4
		c0.7,0,1.4-0.3,2.1-0.7c1.9-1.3,3.3-3.7,3.3-5.7v-16.4l2.3-1.5v-5.6l5.4-3.6v5.6l2.3-1.5v14.7c0,1.1,0.4,2,1.2,2.5
		c0.4,0.3,0.8,0.4,1.3,0.4c0.7,0,1.4-0.3,2.1-0.7c1.9-1.3,3.3-3.7,3.3-5.7v-16.4l2.3-1.5v-5.6l5.4-3.6v5.6l2.3-1.5v14.7
		c0,1.1,0.4,2,1.2,2.5c0.4,0.3,0.8,0.4,1.3,0.4c0.7,0,1.4-0.3,2.1-0.8c1.9-1.3,3.3-3.7,3.3-5.7v-16.4l2.3-1.5v-5.6l5.4-3.6v5.6
		l2.3-1.5v14.7c0,1.1,0.4,2,1.2,2.5c0.4,0.3,0.8,0.4,1.3,0.4c0.7,0,1.4-0.3,2.1-0.7c1.9-1.3,3.3-3.7,3.3-5.7v-16.4l2.3-1.5v-5.6
		l5.4-3.6v5.6l2.3-1.5v14.7c0,1.1,0.4,2,1.2,2.5c0.4,0.3,0.8,0.4,1.3,0.4c0.7,0,1.4-0.3,2.1-0.7c1.9-1.3,3.3-3.7,3.3-5.7v-16.4
		l2.3-1.5v-5.6l5.4-3.6v5.6l2.3-1.5V338c0,1.1,0.4,2,1.2,2.5c0.4,0.3,0.8,0.4,1.3,0.4c0.7,0,1.4-0.3,2.1-0.7
		c1.9-1.3,3.3-3.7,3.3-5.7V318l2.3-1.5v-5.6l5.4-3.6v5.6l2.3-1.5v14.7c0,1.1,0.4,2,1.2,2.5c0.4,0.3,0.8,0.4,1.3,0.4
		c0.7,0,1.4-0.3,2.1-0.7c1.9-1.3,3.3-3.7,3.3-5.7v-16.4l2.3-1.5V299l5.4-3.6v5.6l2.3-1.5v14.7c0,1.1,0.4,2,1.2,2.5
		c0.4,0.3,0.8,0.4,1.3,0.4c0.7,0,1.4-0.2,2.1-0.7c1.9-1.3,3.3-3.7,3.3-5.7v-16.4l2.3-1.5v-5.6l5.4-3.6v5.6l2.3-1.5v14.7
		c0,1.1,0.4,2,1.2,2.5c0.4,0.3,0.8,0.4,1.3,0.4c0.7,0,1.4-0.3,2.1-0.7c1.9-1.3,3.3-3.7,3.3-5.7v-16.4l2.3-1.5v-5.6l5.4-3.6v5.6
		l2.3-1.5v14.7c0,1.1,0.4,2,1.2,2.5c0.4,0.3,0.8,0.4,1.3,0.4c0.7,0,1.4-0.3,2.1-0.7c1.9-1.3,3.3-3.7,3.3-5.7v-16.4l2.3-1.5v-5.6
		l5.4-3.6v5.6l2.3-1.5v14.7c0,1.1,0.4,2,1.2,2.5c0.4,0.3,0.8,0.4,1.3,0.4c0.7,0,1.4-0.3,2.1-0.7c1.9-1.3,3.3-3.7,3.3-5.7v-16.4
		l2.3-1.5v-5.6l5.4-3.6v5.6l2.3-1.5v14.7c0,1.1,0.4,2,1.2,2.5c0.4,0.3,0.8,0.4,1.3,0.4c0.7,0,1.4-0.3,2.1-0.7
		c1.9-1.3,3.3-3.7,3.3-5.7v-16.4l2.3-1.5v-5.6l5.4-3.6v5.6l2.3-1.5v14.7c0,1.1,0.4,2,1.2,2.5c0.4,0.3,0.8,0.4,1.3,0.4
		c0.7,0,1.4-0.2,2.1-0.7c1.9-1.3,3.3-3.7,3.3-5.7v-16.4l2.3-1.5v-5.6l5.7-3.8c0.4-0.3,0.6-0.8,0.6-1.3v-36.4
		C540.5,186,540.5,186,540.4,185.9z M479.1,147.4c-9.9,5.3-24.4,5-33.6-1.1c-4.5-3-6.9-6.9-6.9-11c0-3.9,2.3-7.7,6.4-10.7
		L479.1,147.4z M442.5,122.9c-4.2,3.4-6.5,7.7-6.5,12.3c0,5.2,2.9,10,8.2,13.6c5.2,3.5,12.1,5.3,19,5.3c6.7,0,13.3-1.7,18.5-4.9l0,0
		v0l48.5,32.4L172.5,421l-35.8-24l-12.8-8.5c2.1-1.7,3.7-3.7,4.8-5.7c1.1-2.1,1.7-4.3,1.7-6.6c0-5.2-2.9-10-8.2-13.6
		c-10.3-6.9-26.9-7-37.5-0.3l0,0h0l-48-32.1L394.4,90.8L442.5,122.9z M121.4,386.8L87.3,364c9.9-5.3,24.4-5,33.6,1.1
		c4.5,3,6.9,6.9,6.9,11C127.9,380,125.6,383.8,121.4,386.8z M388.1,86.5l3.8,2.5L34.1,328.4l-3.8-2.5L388.1,86.5z M38.5,376.5
		c0,0.8-0.9,2.3-2,3.1c-0.4,0.3-0.7,0.3-0.7,0.4v-10.4l2.7,1.8V376.5z M177.6,461L29,361.7v-8.8l148.5,99.3V461z M177.6,448.8
		L29,349.4v-21l73.6,49.2l69.2,46.3l0.1,0.1l5.5,3.7V448.8z M178.8,425.2l-3.8-2.5l357.7-239.3l3.8,2.5L178.8,425.2z M183.9,458.5
		l-3.7,2.5v-8.6l3.7-2.5V458.5z M193.7,457.5l-2.3,1.5v18.2c0,0.8-0.9,2.3-2,3.1c-0.4,0.3-0.6,0.3-0.7,0.4v-19.8l-2.3,1.5v-12.9
		l7.2-4.8V457.5z M201.7,446.6l-5.4,3.6v-8.6l5.4-3.6V446.6z M211.5,445.6l-2.3,1.5v18.2c0,0.8-0.9,2.3-2,3.1
		c-0.4,0.3-0.6,0.3-0.7,0.4V449l-2.3,1.5v-12.9l7.2-4.8V445.6z M219.4,434.7l-5.4,3.6v-8.6l5.4-3.6V434.7z M229.3,433.7l-2.3,1.5
		v18.2c0,0.8-0.9,2.3-2,3.1c-0.4,0.3-0.6,0.3-0.7,0.4v-19.8l-2.3,1.5v-12.9l7.2-4.8V433.7z M237.2,422.8l-5.4,3.6v-8.6l5.4-3.6
		V422.8z M247,421.8l-2.3,1.5v18.2c0,0.8-0.9,2.3-2,3.1c-0.4,0.3-0.7,0.3-0.7,0.4v-19.8l-2.3,1.5v-12.9l7.2-4.8V421.8z M255,410.9
		l-5.4,3.6V406l5.4-3.6V410.9z M264.8,409.9l-2.3,1.5v18.2c0,0.8-0.9,2.3-2,3.1c-0.4,0.3-0.7,0.3-0.7,0.4v-19.8l-2.3,1.5v-12.9
		l7.2-4.8V409.9z M272.8,399l-5.4,3.6v-8.6l5.4-3.6V399z M282.6,398l-2.3,1.5v18.2c0,0.8-0.9,2.3-2,3.1c-0.4,0.3-0.6,0.3-0.7,0.4
		v-19.8l-2.3,1.5V390l7.2-4.8V398z M290.6,387.1l-5.4,3.6v-8.6l5.4-3.6V387.1z M300.4,386.1l-2.3,1.5v18.2c0,0.8-0.9,2.3-2,3.1
		c-0.4,0.3-0.7,0.3-0.7,0.4v-19.8l-2.3,1.5v-12.9l7.2-4.8V386.1z M308.4,375.2l-5.4,3.6v-8.6l5.4-3.6V375.2z M318.2,374.3l-2.3,1.5
		v18.2c0,0.8-0.9,2.3-2,3.1c-0.4,0.3-0.6,0.3-0.7,0.4v-19.8l-2.3,1.5v-12.9l7.2-4.8V374.3z M326.1,363.3l-5.4,3.6v-8.6l5.4-3.6
		V363.3z M336,362.4l-2.3,1.5V382c0,0.8-0.9,2.3-2,3.1c-0.4,0.3-0.6,0.3-0.7,0.4v-19.8l-2.3,1.5v-12.9l7.2-4.8V362.4z M343.9,351.4
		l-5.4,3.6v-8.6l5.4-3.6V351.4z M353.7,350.5l-2.3,1.5v18.2c0,0.8-0.9,2.3-2,3.1c-0.4,0.3-0.6,0.3-0.7,0.4v-19.8l-2.3,1.5v-12.9
		l7.2-4.8V350.5z M361.7,339.5l-5.4,3.6v-8.6l5.4-3.6V339.5z M371.5,338.6l-2.3,1.5v18.2c0,0.8-0.9,2.3-2,3.1
		c-0.4,0.3-0.7,0.3-0.7,0.4v-19.8l-2.3,1.5v-12.9l7.2-4.8V338.6z M379.5,327.6l-5.4,3.6v-8.6l5.4-3.6V327.6z M389.3,326.7l-2.3,1.5
		v18.2c0,0.8-0.9,2.3-2,3.1c-0.4,0.3-0.6,0.3-0.7,0.4V330l-2.3,1.5v-12.9l7.2-4.8V326.7z M397.3,315.8l-5.4,3.6v-8.5l5.4-3.6V315.8z
		 M407.1,314.8l-2.3,1.5v18.2c0,0.8-0.9,2.3-2,3.1c-0.4,0.3-0.6,0.3-0.7,0.4v-19.8l-2.3,1.5v-12.9l7.2-4.8V314.8z M415.1,303.8
		l-5.4,3.6v-8.5l5.4-3.6V303.8z M424.9,302.9l-2.3,1.5v18.2c0,0.8-0.9,2.3-2,3.1c-0.4,0.3-0.6,0.3-0.7,0.4v-19.8l-2.3,1.5v-12.9
		l7.2-4.8V302.9z M432.8,292l-5.4,3.6V287l5.4-3.6V292z M442.7,291l-2.3,1.5v18.2c0,0.8-0.9,2.4-2,3.1c-0.4,0.3-0.7,0.3-0.7,0.4
		v-19.8l-2.3,1.5v-12.9l7.2-4.8V291z M450.6,280.1l-5.4,3.6v-8.5l5.4-3.6V280.1z M460.4,279.1l-2.3,1.5v18.2c0,0.8-0.9,2.3-2,3.1
		c-0.4,0.3-0.6,0.3-0.7,0.4v-19.8l-2.3,1.5V271l7.2-4.8V279.1z M468.4,268.2l-5.4,3.6v-8.5l5.4-3.6V268.2z M478.2,267.2l-2.3,1.5
		v18.2c0,0.8-0.9,2.3-2,3.1c-0.4,0.3-0.6,0.3-0.7,0.4v-19.8L471,272v-12.9l7.2-4.8V267.2z M486.2,256.3l-5.4,3.6v-8.5l5.4-3.6V256.3
		z M496,255.3l-2.3,1.5V275c0,0.8-0.9,2.4-2,3.1c-0.4,0.3-0.6,0.3-0.7,0.4v-19.8l-2.3,1.5v-12.9l7.2-4.8V255.3z M504,244.4l-5.4,3.6
		v-8.5l5.4-3.6V244.4z M513.8,243.4l-2.3,1.5v18.2c0,0.8-0.9,2.3-2,3.1c-0.4,0.3-0.7,0.3-0.7,0.4v-19.8l-2.3,1.5v-12.9l7.2-4.8
		V243.4z M521.8,232.5l-5.4,3.6v-8.5l5.4-3.6V232.5z M531.6,231.5l-2.3,1.5v18.2c0,0.8-0.9,2.3-2,3.1c-0.4,0.3-0.7,0.3-0.7,0.4
		v-19.8l-2.3,1.5v-12.9l7.2-4.8V231.5z M537.9,221.7l-3.7,2.5v-8.5l3.7-2.5V221.7z M537.9,209.7L180.1,449v-21l357.7-239.3V209.7z"
		/>
</g>
</svg>
